<svg id="Layer_1" data-name="Layer 1" xmlns="http://www.w3.org/2000/svg" viewBox="0 0 234 234"><defs><style>.cls-1{fill:#faa81a;}.cls-2{fill:#644183;}.cls-3{fill:#fff;}</style></defs><path class="cls-1" d="M117,234A117,117,0,1,0,0,117,117,117,0,0,0,117,234"/><path class="cls-2" d="M192.36,117A75.36,75.36,0,1,1,117,41.64,75.36,75.36,0,0,1,192.36,117m38.3,0A113.66,113.66,0,1,0,117,230.66,113.66,113.66,0,0,0,230.66,117"/><path class="cls-3" d="M117,192.36A75.36,75.36,0,1,0,41.64,117,75.36,75.36,0,0,0,117,192.36"/><path class="cls-1" d="M117,189.08A72.08,72.08,0,1,0,44.92,117,72.08,72.08,0,0,0,117,189.08"/><path class="cls-3" d="M17.5,78.07a9.82,9.82,0,0,1,5-5.58.53.53,0,0,1,.76.27l1.08,2.3a.47.47,0,0,1-.26.68,6.79,6.79,0,0,0-3.19,3.55,6.55,6.55,0,0,0,4,8.44,6.56,6.56,0,0,0,8.57-3.66,7,7,0,0,0,0-4.73.53.53,0,0,1,.26-.68l2.37-1a.56.56,0,0,1,.72.31A10,10,0,0,1,37,85.54,10.43,10.43,0,1,1,17.5,78.07"/><path class="cls-3" d="M23.24,67.77A.57.57,0,0,1,23,67l1.19-2.13a.57.57,0,0,1,.75-.21L41.71,74a.57.57,0,0,1,.21.75l-1.18,2.13a.58.58,0,0,1-.75.21Z"/><path class="cls-3" d="M44.07,67.33A2.72,2.72,0,0,0,44.3,65L43,64.12a4.62,4.62,0,0,0-1.22,1.13,1.65,1.65,0,0,0,.2,2.44,1.45,1.45,0,0,0,2.1-.36M39.82,64.4a7.63,7.63,0,0,1,1.48-1.54c-1.19-.88-1.89-.8-2.5.08a14.11,14.11,0,0,0-1.52,2.9c-.14.4-.47.42-.81.25l-1.38-.66a.57.57,0,0,1-.36-.75,15.42,15.42,0,0,1,1.82-3.53c2.09-3,4.11-2.57,6.69-.75L48.38,64a.58.58,0,0,1,.14.77l-.6.85c-.12.17-.28.24-.62.17l-.84-.17a5,5,0,0,1-.83,3.75,3.7,3.7,0,0,1-5.5.91c-1.68-1.19-2-3.48-.31-5.9"/><path class="cls-3" d="M42.42,54.85a.54.54,0,0,1,0-.78l.73-.82a.54.54,0,0,1,.63-.13l1.11.45a4.07,4.07,0,0,1,.86-3.63c.92-1,2-1.62,2.36-.88l.68,2.06a.52.52,0,0,1-.25.67,3.25,3.25,0,0,0-.7.5,2.35,2.35,0,0,0-.49,2.33l5.21,4.69c.3.27.23.56,0,.87L51,61.83a.55.55,0,0,1-.77,0Z"/><path class="cls-3" d="M44,40.4a.57.57,0,0,1,.06-.77L46,38a.56.56,0,0,1,.77.06l8.14,9.54L55.3,42a1.05,1.05,0,0,1,.33-.74l2-1.71a.49.49,0,0,1,.83.4L58,46.06l7.51.86a.47.47,0,0,1,.24.86l-2.38,2a.71.71,0,0,1-.53.14L56,49l3.17,3.72a.57.57,0,0,1-.06.78l-1.87,1.59a.57.57,0,0,1-.78-.06Z"/><path class="cls-3" d="M66,46.06l-.19-1.74a.44.44,0,0,1,.45-.53A6.45,6.45,0,0,0,68.87,43c.49-.31.71-.73.44-1.14s-.8-.49-2.42-.17c-2.34.48-3.86,0-4.82-1.44S61.32,36.62,63.8,35a6.66,6.66,0,0,1,3.48-1.18.62.62,0,0,1,.64.52l.2,1.64a.57.57,0,0,1-.48.54,7,7,0,0,0-2.35.79c-.58.38-.67.78-.47,1.1s.82.3,2,.08c2.35-.47,4.28-.58,5.5,1.32,1,1.6.51,3.88-2,5.46a6.55,6.55,0,0,1-3.82,1.19.5.5,0,0,1-.48-.42"/><path class="cls-3" d="M79.08,36.85a2.53,2.53,0,0,0,1.41-2.74l-1.42-3a3.76,3.76,0,0,0-2.33.35,2.84,2.84,0,0,0-1.3,3.86,2.77,2.77,0,0,0,3.64,1.57m-4-8.08a7.05,7.05,0,0,1,2.55-.62l-3.53-7.59a.56.56,0,0,1,.26-.73l2.23-1a.57.57,0,0,1,.73.27l8.11,17.38a.57.57,0,0,1-.27.73l-1,.48a.64.64,0,0,1-.73-.27l-.65-.69A5.09,5.09,0,0,1,80,39.87,5.81,5.81,0,0,1,72.4,36.7C71,33.63,71.9,30.22,75,28.77"/><path class="cls-3" d="M91.28,32.86a2.71,2.71,0,0,0,1.6-1.65l-.46-1.53a4.51,4.51,0,0,0-1.65.13,1.65,1.65,0,0,0-1.36,2,1.45,1.45,0,0,0,1.87,1m-1.52-4.93a7.53,7.53,0,0,1,2.12-.3c-.4-1.42-1-1.79-2-1.48a13.51,13.51,0,0,0-3,1.34c-.36.22-.63,0-.79-.31l-.68-1.37a.57.57,0,0,1,.18-.81,15.8,15.8,0,0,1,3.62-1.65c3.47-1,4.82.53,5.72,3.56l1.79,6a.58.58,0,0,1-.38.69l-1,.3c-.2,0-.36,0-.59-.25L94.2,33a5,5,0,0,1-3,2.42,3.7,3.7,0,0,1-4.88-2.69c-.58-2,.58-4,3.41-4.82"/><path class="cls-3" d="M96,13.54a.58.58,0,0,1,.44-.64l2.39-.44a.57.57,0,0,1,.65.44L103,31.76a.55.55,0,0,1-.44.64l-2.39.45a.57.57,0,0,1-.64-.44Z"/><path class="cls-3" d="M112.48,24a2.16,2.16,0,0,0-2.25-1.8,2.28,2.28,0,0,0-2.11,2.13Zm-2.37-4.47a5.32,5.32,0,0,1,5.81,5c0,.2,0,.58,0,.78a.57.57,0,0,1-.51.54l-7.4.55a2.78,2.78,0,0,0,3,2.31,4,4,0,0,0,2.19-.9c.28-.19.54-.27.76-.05L115.21,29a.47.47,0,0,1,0,.75,6.23,6.23,0,0,1-4.18,1.91,5.91,5.91,0,0,1-6.38-5.62,5.94,5.94,0,0,1,5.43-6.51"/><path class="cls-3" d="M137.27,12.44a9.76,9.76,0,0,1,6.46,3.84.53.53,0,0,1-.11.8l-2.05,1.5a.45.45,0,0,1-.71-.12A6.9,6.9,0,0,0,136.75,16a6.57,6.57,0,0,0-7.51,5.57,6.55,6.55,0,0,0,5.26,7.69,6.94,6.94,0,0,0,4.65-.88.54.54,0,0,1,.72.12l1.46,2.14a.55.55,0,0,1-.16.76A10,10,0,0,1,133.75,33a10.43,10.43,0,1,1,3.52-20.56"/><path class="cls-3" d="M147.89,33.69a3,3,0,0,0,2-5.56,2.84,2.84,0,0,0-3.61,1.8,2.87,2.87,0,0,0,1.59,3.76m3.09-8.5a6.09,6.09,0,1,1-7.65,3.67A6,6,0,0,1,151,25.19"/><path class="cls-3" d="M163.05,21.72a.57.57,0,0,1,.74-.25L166,22.55a.57.57,0,0,1,.24.74l-8.52,17.18a.57.57,0,0,1-.74.25l-2.18-1.08a.57.57,0,0,1-.25-.74Z"/><path class="cls-3" d="M170.26,25.49a.59.59,0,0,1,.76-.19l2.09,1.25a.56.56,0,0,1,.19.75l-9.81,16.48a.57.57,0,0,1-.76.19l-2.09-1.24a.57.57,0,0,1-.19-.76Z"/><path class="cls-3" d="M175.74,44.23a2.16,2.16,0,0,0-.5-2.85,2.28,2.28,0,0,0-3,.22Zm1.17-4.93A5.33,5.33,0,0,1,178,46.87a5.67,5.67,0,0,1-.52.58.54.54,0,0,1-.73.07l-5.93-4.46a2.77,2.77,0,0,0,.71,3.69,4.1,4.1,0,0,0,2.24.78c.33,0,.58.14.6.45l.13,1.8a.47.47,0,0,1-.48.58,6.14,6.14,0,0,1-4.4-1.32,6.09,6.09,0,0,1,7.29-9.74"/><path class="cls-3" d="M182.29,53.66a2.09,2.09,0,0,0,3-2.95,2.09,2.09,0,0,0-3,2.95m-7.66,7.46c1.15,1.15,2.42,1.39,3.2.62.37-.37.72-1.29-.49-2.5A13.71,13.71,0,0,0,175.93,58a1.64,1.64,0,0,0-1.89.12c-.71.71-.51,1.9.59,3M178.93,51a4.37,4.37,0,0,1,1.32-2.54,5,5,0,0,1,7.12,0l3.73,3.73a.54.54,0,0,1,0,.78l-.67.68a.53.53,0,0,1-.58.12L188.33,53a3.79,3.79,0,0,1-1.27,2.91,4.72,4.72,0,0,1-6.72-.3c-.78-.78-1.15-1.48-1.47-1.81a1.17,1.17,0,0,0-1.54,0,1,1,0,0,0,.12,1.52L180.07,58c1.86,1.87,2.3,4.45.5,6.25s-5,2-8-1-2.67-5.67-1.36-7a3.24,3.24,0,0,1,3.18-.71l.06-.07a3.11,3.11,0,0,1,.62-3.68,3.8,3.8,0,0,1,3.83-.75"/><path class="cls-3" d="M196.43,52.37a2,2,0,0,1,2.79.29,2,2,0,1,1-3.13,2.49,2,2,0,0,1,.34-2.78m-3.63,3.29a.54.54,0,0,1,.77.09l1.5,1.88a.55.55,0,0,1-.08.77l-8.2,6.54a.58.58,0,0,1-.78-.08L184.51,63a.57.57,0,0,1,.09-.78Z"/><path class="cls-3" d="M192.09,69.68a2.7,2.7,0,0,0,2,1.08l1.34-.86a4.29,4.29,0,0,0-.58-1.55,1.65,1.65,0,0,0-2.33-.75,1.45,1.45,0,0,0-.46,2.08m4.32-2.82a7.51,7.51,0,0,1,.87,2c1.26-.77,1.45-1.44.87-2.35A14,14,0,0,0,196,64c-.32-.28-.21-.59.08-.84l1.13-1a.57.57,0,0,1,.83-.05,15.12,15.12,0,0,1,2.58,3c2,3.05.82,4.77-1.84,6.47l-5.3,3.38a.57.57,0,0,1-.76-.16l-.56-.88c-.11-.17-.12-.34.07-.64l.48-.71a5,5,0,0,1-3.15-2.18,3.69,3.69,0,0,1,1.24-5.43c1.73-1.11,4-.55,5.57,1.94"/><path class="cls-3" d="M202.29,74.5l-.43-.89a.54.54,0,0,1,.27-.7l1.75-.84a.53.53,0,0,1,.73.23l.42.89,2.9-1.39a.59.59,0,0,1,.74.26l1.05,2.13a.55.55,0,0,1-.27.71l-2.93,1.4,1.1,2.3a.52.52,0,0,1-.26.73l-1.75.84a.54.54,0,0,1-.73-.26l-1.1-2.3-4.19,2c-.73.35-.65.79-.45,1.21a4.79,4.79,0,0,0,.91,1.14.45.45,0,0,1,0,.71L198.64,84a.53.53,0,0,1-.77,0,11.31,11.31,0,0,1-2.17-2.79c-1-2-.13-3.5,2-4.51Z"/><path class="cls-3" d="M207.38,90.54a2.16,2.16,0,0,0,1.2-2.63A2.27,2.27,0,0,0,206,86.39Zm3.76-3.39a5.31,5.31,0,0,1-3.4,6.84,5,5,0,0,1-.76.19.56.56,0,0,1-.64-.36l-2.35-7a2.77,2.77,0,0,0-1.51,3.44,4,4,0,0,0,1.4,1.91c.26.22.4.45.24.72l-.91,1.55a.48.48,0,0,1-.73.21A6.2,6.2,0,0,1,199.61,91a6.08,6.08,0,0,1,11.53-3.87"/><path class="cls-1" d="M191.48,128.5h39.31a114.3,114.3,0,0,0,0-23H191.48a75.58,75.58,0,0,1,0,23m-149-23H3.21a114.3,114.3,0,0,0,0,23H42.52a75.58,75.58,0,0,1,0-23"/><path class="cls-2" d="M37.56,122A1.47,1.47,0,0,0,39,123.42,1.49,1.49,0,0,0,40.5,122,1.5,1.5,0,0,0,39,120.48,1.49,1.49,0,0,0,37.56,122m-6,.94a.35.35,0,0,0,.33.34h1.66a.35.35,0,0,0,.34-.34v-10h2.73a.34.34,0,0,0,.34-.34V111.1a.34.34,0,0,0-.34-.34H28.82a.34.34,0,0,0-.34.34v1.46a.34.34,0,0,0,.34.34h2.73ZM19.2,122a5.76,5.76,0,0,0,3.93,1.39c2.51,0,4.1-1.69,4.1-3.53,0-2.3-2-3.34-3.73-4-1.44-.59-2.1-1.16-2.1-2A1.42,1.42,0,0,1,23,112.61a5.91,5.91,0,0,1,2.48,1c.21.15.48,0,.62-.21l.68-1a.45.45,0,0,0-.11-.59,6.37,6.37,0,0,0-3.57-1.19c-2.83,0-4,1.84-4,3.42,0,2.11,1.68,3.18,3.35,3.86,1.5.6,2.27,1.23,2.27,2.14a1.49,1.49,0,0,1-1.62,1.37,5.86,5.86,0,0,1-2.7-1.11.41.41,0,0,0-.6.13l-.65,1.11c-.16.28-.07.37.09.53M9,122.9a.34.34,0,0,0,.34.34H16.6a.34.34,0,0,0,.34-.34v-1.46a.34.34,0,0,0-.34-.34H11.32V118h4.4a.34.34,0,0,0,.34-.34v-1.48a.35.35,0,0,0-.34-.34h-4.4V112.9H16.6a.34.34,0,0,0,.34-.34V111.1a.34.34,0,0,0-.34-.34H9.34a.34.34,0,0,0-.34.34Z"/><path class="cls-2" d="M220.28,119.67a1.78,1.78,0,1,1,3.56,0,1.79,1.79,0,0,1-3.56,0m1.78-3.82c-1.08-.25-1.56-.85-1.56-1.62a1.5,1.5,0,0,1,1.53-1.46,1.51,1.51,0,0,1,1.59,1.46c0,.73-.5,1.38-1.56,1.62M218,119.7c0,1.87,1.57,3.29,4,3.29s4.09-1.42,4.09-3.29a3.52,3.52,0,0,0-2.07-2.85v-.07a3.3,3.3,0,0,0,1.76-2.64c0-1.9-1.65-3.13-3.78-3.13s-3.72,1.23-3.72,3.13a3.19,3.19,0,0,0,1.77,2.65v.06c-.48.24-2.07,1.36-2.07,2.85m-3.65,2.79a.33.33,0,0,0,.32.33h1.48a.33.33,0,0,0,.31-.33v-11a.33.33,0,0,0-.31-.33H215l-2.46,2.07a.34.34,0,0,0-.09.31l.1.84a.28.28,0,0,0,.34.22l1.51-.32ZM207.45,121c-1.32,0-2.07-1.42-2.07-4s.75-4,2.07-4,2.07,1.44,2.07,4-.76,4-2.07,4m0,2c2.73,0,4.31-2.24,4.31-6s-1.58-6-4.31-6-4.31,2.24-4.31,6,1.57,6,4.31,6m-12.83-.5a.32.32,0,0,0,.32.33h6.74a.35.35,0,0,0,.33-.33v-1.18a.34.34,0,0,0-.33-.32H198c.9-1.15,2.2-2.76,2.94-3.8a4.56,4.56,0,0,0,1.15-2.77c0-1.85-1.37-3.41-3.82-3.41a4.73,4.73,0,0,0-3.37,1.68.32.32,0,0,0,0,.44l.82.82a.3.3,0,0,0,.46,0,2.82,2.82,0,0,1,1.92-1,1.62,1.62,0,0,1,1.81,1.56,3.27,3.27,0,0,1-.87,1.9c-1.15,1.52-3.31,4.33-4.43,5.7Z"/><path class="cls-3" d="M211.86,144.72a.29.29,0,0,0,.35-.21l1.47-6a.28.28,0,0,0-.21-.34l-1.59-.39a.28.28,0,0,0-.34.21l-1,4-2-.49.81-3.32a.28.28,0,0,0-.21-.34l-1.58-.39a.29.29,0,0,0-.35.21l-.81,3.32-1.81-.44,1-4a.28.28,0,0,0-.21-.34l-1.59-.39a.29.29,0,0,0-.34.21L202,142a.29.29,0,0,0,.2.35Zm-8.32,8.88a5.38,5.38,0,0,0,6.88-3.32,5.18,5.18,0,0,0-.16-3.92.32.32,0,0,0-.38-.15l-1.56.69a.3.3,0,0,0-.15.36,3.21,3.21,0,0,1,0,2.14,3.07,3.07,0,0,1-5.8-2,3.07,3.07,0,0,1,1.39-1.66.26.26,0,0,0,.13-.35l-.76-1.51a.29.29,0,0,0-.4-.13,5.1,5.1,0,0,0-2.52,3,5.41,5.41,0,0,0,3.31,6.91m-.25,11.61a.3.3,0,0,0,.38-.13l.8-1.6a.29.29,0,0,0-.13-.38l-5-2.49v0l8-2.65a.5.5,0,0,0,.15-.14l.11-.22a.28.28,0,0,0-.12-.37l-9-4.5a.31.31,0,0,0-.38.13l-.8,1.61a.28.28,0,0,0,.13.39l4.77,2.36v0L194.3,160l-.17.33a.28.28,0,0,0,.12.38Zm-6.87,4.65-1.45-2.3h0l2.69.41Zm1,5,.91-1.37a.57.57,0,0,0,0-.65l-.7-1.11,2.24-3.41,1.29.2a.51.51,0,0,0,.6-.23l.92-1.4a.26.26,0,0,0-.19-.42l-11-1.63a.31.31,0,0,0-.28.12l-.08.13a.29.29,0,0,0,0,.3l5.85,9.47a.27.27,0,0,0,.47,0m-4.8,5.6a.29.29,0,0,0,.4-.05l3.54-4.39a.29.29,0,0,0,0-.4l-1.27-1a.28.28,0,0,0-.4,0l-2.24,2.78-6.24-5a.28.28,0,0,0-.4,0l-1.12,1.39a.29.29,0,0,0,0,.4Zm-3.49,3.9a.31.31,0,0,0,.41,0l1.22-1.31a.31.31,0,0,0,0-.41l-7.27-6.76a.29.29,0,0,0-.4,0l-1.23,1.32a.29.29,0,0,0,0,.4ZM182.83,188l-1.46-1.57.89-.83a1.2,1.2,0,0,1,1.62-.07,1.09,1.09,0,0,1,0,1.54ZM180,185l-1.43-1.54.86-.8a1,1,0,0,1,1.46,0,1.07,1.07,0,0,1,0,1.51Zm2.35,6a.28.28,0,0,0,.4,0l2.72-2.53a3.06,3.06,0,0,0,.42-4.35,2.83,2.83,0,0,0-3.13-.42,2.7,2.7,0,0,0-4.61-2.77l-2.55,2.39a.28.28,0,0,0,0,.4Zm-11.06,4a4.27,4.27,0,0,0,6.78-5.2l-3.77-4.92a.29.29,0,0,0-.4,0L172.48,186a.29.29,0,0,0,0,.4l3.69,4.82a1.85,1.85,0,0,1-.34,2.64,1.82,1.82,0,0,1-2.61-.38l-3.7-4.82a.28.28,0,0,0-.4,0l-1.46,1.12a.3.3,0,0,0-.05.4Zm-4.83,6.67a2.88,2.88,0,0,0,2.51-.28,3.11,3.11,0,0,0,1-4.49l-3.75-6a.29.29,0,0,0-.4-.09l-1.55,1a.28.28,0,0,0-.09.39l3.75,6a1,1,0,0,1-.15,1.43.92.92,0,0,1-.82.14.28.28,0,0,0-.34.21l-.34,1.4a.32.32,0,0,0,.18.33m-6.2,1.45a2.17,2.17,0,0,0,1-2.86,2.2,2.2,0,0,0-2.92-1,2.17,2.17,0,0,0-.92,2.89,2.14,2.14,0,0,0,2.83,1m-14.51,8.39a.29.29,0,0,0,.36.17l1.68-.59a.28.28,0,0,0,.18-.36l-1.86-5.28h0l7.57,3.64a.5.5,0,0,0,.21,0l.23-.08a.28.28,0,0,0,.17-.35L151,199.18a.3.3,0,0,0-.36-.18l-1.7.6a.29.29,0,0,0-.17.37l1.77,5h0L143,201.55l-.35.12a.29.29,0,0,0-.18.35Zm-11.24-2.39a3,3,0,1,1,3.56,2.28,3,3,0,0,1-3.56-2.28m-2.34.51a5.39,5.39,0,1,0,4.11-6.43,5.35,5.35,0,0,0-4.11,6.43M128.82,215a.3.3,0,0,0,.32.24l1.79-.25a.3.3,0,0,0,.24-.32l-1.38-9.84a.3.3,0,0,0-.32-.24l-1.78.25a.29.29,0,0,0-.24.32Zm-6.55.54a.3.3,0,0,0,.3.27l1.79-.11a.3.3,0,0,0,.27-.31l-.51-8,2.15-.14a.28.28,0,0,0,.26-.3l-.1-1.63a.29.29,0,0,0-.3-.27l-6.65.43a.29.29,0,0,0-.27.3l.11,1.63a.27.27,0,0,0,.3.26l2.14-.13Zm-6.59.16a.3.3,0,0,0,.29.28l1.8,0a.3.3,0,0,0,.28-.29l-.12-9.93a.3.3,0,0,0-.29-.28l-1.8,0a.3.3,0,0,0-.28.29Zm-7-2.21.13-2.14,1.22.07a1.2,1.2,0,0,1,1.16,1.13,1.08,1.08,0,0,1-1.15,1Zm.26-4.09.13-2.1,1.17.08a1,1,0,0,1,1,1.08,1.07,1.07,0,0,1-1.11,1Zm-2.71,5.8a.28.28,0,0,0,.26.3l3.72.23a3,3,0,0,0,3.44-2.68,2.84,2.84,0,0,0-1.85-2.57,2.69,2.69,0,0,0-1.16-5.24l-3.48-.22a.29.29,0,0,0-.31.27Zm-13.88-2.48a.27.27,0,0,0,.21.38l1.74.33a.29.29,0,0,0,.33-.18l1.52-4.43h0l1.57,5.25a.33.33,0,0,0,.22.21l.27.05a.36.36,0,0,0,.28-.11l3.39-4.3h0l-.21,4.68a.3.3,0,0,0,.23.29l1.74.33a.28.28,0,0,0,.35-.27l.23-10.21a.28.28,0,0,0-.22-.29l-.24-.05a.35.35,0,0,0-.28.1l-4.63,5.71h0l-2.2-7a.35.35,0,0,0-.23-.2l-.23,0a.27.27,0,0,0-.31.18Zm-5.66-5.27,1.83-2h0l.32,2.71Zm-4.57,2.31,1.57.51a.57.57,0,0,0,.63-.18l.88-1,3.88,1.26.15,1.29c0,.31.13.43.38.52l1.59.51a.26.26,0,0,0,.36-.29l-1.35-11.05a.31.31,0,0,0-.19-.24l-.14,0a.29.29,0,0,0-.3.08L82,209.34a.27.27,0,0,0,.12.45m-5-5a2.17,2.17,0,0,0,2.86-1A2.15,2.15,0,1,0,76.06,202a2.16,2.16,0,0,0,1,2.82m-13.3-4.55a.29.29,0,0,0,.11.39l5.34,3.16a.29.29,0,0,0,.39-.1l.83-1.41a.28.28,0,0,0-.1-.39l-3.58-2.11,1-1.75,2.94,1.74a.27.27,0,0,0,.39-.1l.83-1.4a.29.29,0,0,0-.1-.39l-2.94-1.74.94-1.61,3.58,2.12a.29.29,0,0,0,.39-.1l.83-1.41a.28.28,0,0,0-.1-.39l-5.34-3.16a.29.29,0,0,0-.39.1ZM60.65,191l1.39-1.9,1.8,1.31a1.15,1.15,0,0,1,.24,1.6,1.21,1.21,0,0,1-1.63.3Zm-5.27,3.23a.3.3,0,0,0,.06.4l1.45,1.05a.28.28,0,0,0,.39-.06l2.25-3.08.84.61-.72,4.38a.28.28,0,0,0,.11.25L61.37,199a.28.28,0,0,0,.46-.2l.58-4.28a3.21,3.21,0,0,0,2.85-5.68l-3.63-2.64a.29.29,0,0,0-.4.06ZM49.58,184a4.27,4.27,0,0,0,6.25,5.83l4.23-4.54a.29.29,0,0,0,0-.4l-1.35-1.26a.28.28,0,0,0-.4,0l-4.14,4.44a1.86,1.86,0,1,1-2.73-2.53l4.14-4.45a.28.28,0,0,0,0-.4l-1.35-1.26a.29.29,0,0,0-.4,0Zm-6.89-2a.29.29,0,0,0,0,.4l1.19,1.35a.31.31,0,0,0,.41,0l6-5.31,1.42,1.6a.3.3,0,0,0,.41,0L53.31,179a.28.28,0,0,0,0-.4l-4.42-5a.28.28,0,0,0-.4,0l-1.22,1.09a.28.28,0,0,0,0,.4l1.43,1.6ZM39,169.22a5.37,5.37,0,0,0-1.16,7.54,5.15,5.15,0,0,0,3.32,2.09.3.3,0,0,0,.34-.22l.32-1.68a.31.31,0,0,0-.22-.33,3.16,3.16,0,0,1-1.77-1.2,3.07,3.07,0,0,1,5-3.63,3.12,3.12,0,0,1,.58,2.09.25.25,0,0,0,.22.3l1.67.23a.28.28,0,0,0,.33-.25,5.06,5.06,0,0,0-1-3.76A5.41,5.41,0,0,0,39,169.22m-6.21-7.95a4.28,4.28,0,0,0,4.36,7.36l5.33-3.15a.29.29,0,0,0,.1-.39l-.94-1.59a.28.28,0,0,0-.39-.1l-5.23,3.09a1.85,1.85,0,0,1-2.58-.65,1.83,1.83,0,0,1,.69-2.55l5.23-3.1a.28.28,0,0,0,.1-.39l-.94-1.58a.29.29,0,0,0-.39-.1Zm-1.26-7.49,2.16-.94.89,2a1.15,1.15,0,0,1-.59,1.51,1.22,1.22,0,0,1-1.57-.56Zm-6.18.14a.28.28,0,0,0-.14.37l.71,1.64a.3.3,0,0,0,.38.14l3.49-1.52.41.94-2.83,3.42a.29.29,0,0,0,0,.28l.8,1.82a.28.28,0,0,0,.5.06l2.65-3.4a3.29,3.29,0,0,0,3.66.82,3.26,3.26,0,0,0,1.66-4.3l-1.79-4.11a.29.29,0,0,0-.38-.14Zm-2.24-6.19a.29.29,0,0,0-.17.36l.6,1.7a.29.29,0,0,0,.36.17l7.56-2.66.71,2a.28.28,0,0,0,.36.17L34.1,149a.29.29,0,0,0,.18-.37l-2.21-6.28a.3.3,0,0,0-.37-.17l-1.54.54A.28.28,0,0,0,30,143l.71,2Zm-2-10.18a4.81,4.81,0,0,0-.32,3.56,3.29,3.29,0,0,0,3.85,2.7c2-.48,2.43-2.51,2.61-3.75s.49-1.81,1-1.94a.87.87,0,0,1,1,.74,4.7,4.7,0,0,1-.36,2.3c-.07.15.12.38.31.44l1.3.47c.12,0,.39,0,.44-.2a5.52,5.52,0,0,0,.33-3.38c-.54-2.25-2.27-3-3.71-2.66-1.75.43-2.35,2.24-2.54,3.61-.15,1.09-.49,1.71-1.1,1.86a.94.94,0,0,1-1.12-.79,4.47,4.47,0,0,1,.29-2.26.39.39,0,0,0-.2-.48l-1.38-.39c-.23-.06-.28,0-.39.17"/><path class="cls-2" d="M73.22,138.83c-4.43-8.94-17.91-6.44-25-16.13a20.84,20.84,0,0,1-3.27-7A72.5,72.5,0,0,1,47,99.8c4.13,17.58,16,16.63,25.33,27C64.87,116.67,55.3,116,51.08,104.23a29.16,29.16,0,0,1-1.54-12.55A72,72,0,0,1,60.41,72.43c-1.3,3-8.62,23.21,17.21,41.65,0,0-12.78-13.72-8.69-22.5-1.13,16.14,26,24.78,23.13,40.92,0,0-5.53-4.35-7,3.07-.78,4,1.31,8.89,5.3,12.4,6.86,6.05,15,7.79,17-3.52.89-5.1,1-7.82,5.24-10.78a14.55,14.55,0,0,1-10.42-3.09,32.3,32.3,0,0,0,11.67.11c-4.33-.32-15.14-3.17-14.09-9.89,1.57,6.15,15.18,6.25,21.08,6.76,4.15.36,9.33,1.06,10.11,6.22,3,1.42,5.67,5.59,1.64,8.16a3.66,3.66,0,0,0-6.88-2.25,8.79,8.79,0,0,0-.22,7.63c2.58,6.19,7.73,6,13,3.71,7-3.06,11.13-10.08,10.09-15.46-1.45-7.42-7-3.07-7-3.07-2.91-16.14,24.26-24.78,23.13-40.92,4.09,8.78-8.69,22.5-8.69,22.5,28-20,17-42,17-42,.17.12.31.25.47.36A72.32,72.32,0,0,1,184.1,90.6a29.15,29.15,0,0,1-1.44,13.63c-4.21,11.81-13.78,12.44-21.26,22.6,9.42-10.53,21.49-9.42,25.47-27.71a72,72,0,0,1,2.18,15.37,21.11,21.11,0,0,1-3.55,8.21c-7.06,9.69-20.54,7.19-25,16.13,6.07-8.92,22.87-4.55,28.43-17.32a71.57,71.57,0,0,1-3.07,16.84c-8,8.53-22.48,3.36-28.8,9.29,7.08-4.81,18.33,1,27.13-4.55a71.15,71.15,0,0,1-6,12.06c-7.87,2.95-18.45-3.69-25.69-1,8.58-1.41,14.74,4.88,24,3.49a73.88,73.88,0,0,1-6.74,8.41c-8.06,2.19-15.59-5.61-21.3-6.61,6.19,2,9.95,8.87,18.89,9.08q-1.94,1.89-4,3.63a14.14,14.14,0,0,1-8.72.17c-5.41-1.67-6.26-6.86-11-9.07,5.12,3.3,4.07,9.29,13.58,11.78-10,5.21-17.74-8.35-17.74-8.35,1.11,3,4,8.49,8.21,11-5.5-.29-10-8.66-10.32-9.23-7.07,1.6-10.46,6.94-6.56,13.62-4.13-2.31-5.86-5.76-4.1-10.88-3.27,5.13.14,10.18,3.52,13.67a29.87,29.87,0,0,0,2.7,2.44q-3.34.75-6.79,1.19c-.65-.84-1.28-1.7-1.85-2.58a26.12,26.12,0,0,0,1.28,2.65,71.65,71.65,0,0,1-8.59.53,74.41,74.41,0,0,1-8.88-.56,23.6,23.6,0,0,0,1.26-2.62c-.56.87-1.17,1.71-1.82,2.54a68.33,68.33,0,0,1-6.74-1.21,28.24,28.24,0,0,0,2.63-2.38c3.37-3.49,6.79-8.54,3.51-13.67,1.76,5.12,0,8.57-4.1,10.88,4.57-7.74-1-12.53-6.56-13.62-.33.57-4.82,8.94-10.31,9.23,4.2-2.47,7.1-8,8.21-11,0,0-7.77,13.56-17.74,8.35,9.5-2.49,8.45-8.48,13.57-11.78-4.72,2.21-5.57,7.4-11,9.07a14.12,14.12,0,0,1-8.22,0c-1.45-1.21-2.84-2.48-4.19-3.79,8.73-.36,12.47-7.13,18.58-9.08-5.61,1-13,8.54-20.88,6.72a71.13,71.13,0,0,1-6.8-8.46c9.12,1.19,15.22-4.94,23.69-3.55-7.12-2.68-17.47,3.7-25.29,1.11a72.32,72.32,0,0,1-6-11.95c8.74,5.09,19.75-.44,26.72,4.3-6.21-5.82-20.26-1-28.34-8.84a71.32,71.32,0,0,1-3.15-16.48c5.9,11.78,22.11,7.78,28.05,16.51"/><path class="cls-1" d="M124.56,131.75a3.27,3.27,0,0,1,3.24,2.15,3.27,3.27,0,0,1-3.24-2.15"/><path class="cls-1" d="M55.46,152.92a9.16,9.16,0,0,1-1.39-.84c-.53-1-1-1.91-1.53-2.89a12,12,0,0,0,9.7,3.7c6.41-.42,13.22-4.32,20.66,0-6.07-2.55-11.79-.43-17,.68-4,.85-7.39.84-10.4-.62m6.19,10.2c-.21-.25-.42-.5-.62-.76,8.26,5.39,15.74-5.52,25.39-4.41C78,158,69.81,169,61.65,163.12m29-32.79C89.52,120,79.41,115.7,76.21,108.27c3.09,5.91,14.93,11.47,14.43,22.06m0,31.49c-7.24,1.88-7.2,12.29-19,9.41,11.85,1.45,10.5-8.16,19-9.41m3.47,3.23c-1.71,2.67-6.19,9.9-13.15,10.48,6.88-1.68,11-8.07,13.15-10.48M76.19,131.27C71.07,111.26,46,115.21,53.32,84c-3.62,31,20.42,25.85,22.87,47.28m-27-11.09A20.5,20.5,0,0,1,46,107.32c.7,6.7,3.76,13.78,9.81,17.27,6.39,3.69,14.74,3.58,20.19,13.5-5.16-7.1-11.38-8.25-16.84-10.33a19.61,19.61,0,0,1-10-7.58m-2.34,13.15c-.19-.83-.38-1.66-.54-2.51,2.5,4.21,6.22,7.78,11,9,6.58,1.72,13.45-.47,21.25,7.06-6.32-5-12.14-4.55-17.5-5.06a18.21,18.21,0,0,1-10.72-4.29,17.4,17.4,0,0,1-3.5-4.23m96.27,28.49c8.53,1.25,7.18,10.86,19,9.41-11.83,2.88-11.79-7.53-19-9.41m9.68,13.71c-7-.58-11.43-7.81-13.15-10.48,2.15,2.41,6.27,8.8,13.15,10.48M147.33,158c9.91-1.14,17.55,10.42,26.08,3.93l-.4.52c-8.47,7.46-16.91-4.39-25.68-4.45m10.21-49.68c-3.2,7.43-13.31,11.73-14.42,22.06-.51-10.59,11.33-16.15,14.42-22.06m24.34,40.21c-.52,1.09-1.08,2.15-1.66,3.2a9.36,9.36,0,0,1-1.93,1.24c-3,1.46-6.42,1.47-10.4.62-5.25-1.11-11-3.23-17-.68,7.44-4.29,14.25-.39,20.66,0a12,12,0,0,0,10.37-4.41m6-18.49c-.15.8-.3,1.6-.47,2.39a17.61,17.61,0,0,1-4,5.18,18.21,18.21,0,0,1-10.72,4.29c-5.36.51-11.18,0-17.5,5.06,7.8-7.53,14.67-5.34,21.25-7.06,5.1-1.33,9-5.3,11.47-9.86m-.16-22.67a20.5,20.5,0,0,1-3.18,12.86,19.61,19.61,0,0,1-10,7.58c-5.46,2.08-11.67,3.23-16.84,10.33,5.45-9.92,13.8-9.81,20.19-13.5,6.05-3.49,9.11-10.57,9.81-17.27M180.43,84c7.34,31.22-17.74,27.27-22.87,47.28C160,109.84,184.05,115,180.43,84m-50.75,69.25h0Z"/><path class="cls-2" d="M120.61,52c7,0,12.67,2.17,18.26,7a.52.52,0,0,1,.2.37.49.49,0,0,1-.17.37l-3.44,3.52,0,0,0,0c-.07.11-.13.14-.12.15a.78.78,0,0,1-.34-.24l0,0,0,0a22.31,22.31,0,0,0-14.19-5.48c-11.37,0-20.62,9.57-20.62,21.33s9.29,21.25,20.7,21.25c6.24,0,10.44-2.58,14.06-5.37a.72.72,0,0,1,.41-.18.33.33,0,0,1,.19.06L139,98.27l0,0,0,0a.22.22,0,0,1,.07.17.73.73,0,0,1-.18.47,25.73,25.73,0,0,1-18.31,7.3,27.18,27.18,0,0,1-19.27-7.88,26.81,26.81,0,0,1-8-19.19A27.25,27.25,0,0,1,120.61,52m0-1a28.15,28.15,0,1,0,0,56.29,26.82,26.82,0,0,0,19-7.58,1.48,1.48,0,0,0,.08-2.11L136.1,94a1.31,1.31,0,0,0-.86-.31,1.62,1.62,0,0,0-1,.39c-3.75,2.89-7.74,5.16-13.45,5.16-11.18,0-19.7-9.31-19.7-20.25s8.44-20.33,19.62-20.33a21.18,21.18,0,0,1,13.53,5.24,1.52,1.52,0,0,0,1,.53,1.17,1.17,0,0,0,.92-.53l3.44-3.52a1.45,1.45,0,0,0-.07-2.19c-5.32-4.61-11-7.27-18.93-7.27Z"/><path class="cls-2" d="M116.31,51c7.9,0,13.61,2.66,18.93,7.27a1.45,1.45,0,0,1,.07,2.19l-3.44,3.52c-.54.7-1.25.7-2,0a21.18,21.18,0,0,0-13.53-5.24c-11.18,0-19.62,9.38-19.62,20.33s8.52,20.25,19.7,20.25c5.71,0,9.7-2.27,13.45-5.16A1.43,1.43,0,0,1,131.8,94l3.59,3.52a1.48,1.48,0,0,1-.08,2.11,26.82,26.82,0,0,1-19,7.58,28.15,28.15,0,1,1,0-56.29Z"/></svg>